# xmcd
#
# Track frame offsets: 
#        150
#        18880
#        31683
#        43652
#        53314
#        64049
#        73238
#        86351
#        96045
#        106769
#        126159
#        137409
#        151389
#        163026
#        171849
#        182354
#        193573
#        209132
#        219798
#        229610
#        241258
#        253916
#
# Disc length: 3542 seconds
#
# Revision: 2
# Processed by: cddbd v1.5.2PL0 Copyright (c) Steve Scherf et al.
# Submitted via: ExactAudioCopyFreeDBPlugin 1.0
#
DISCID=1b0dd416
DTITLE=Various Artist - Jukebox Mambo - Ruma and afro-latin accented rhythm and b
DTITLE=lues 1949-1960
DYEAR=2012
DGENRE=Mambo
TTITLE0=Joe Lutcher - Ojai (1949)
TTITLE1=Mable Scott - Fool Burro (1953)
TTITLE2=Red Callender Sextet - Eee Ooo Voodoo (1954)
TTITLE3=Percy Mayfield - Louisiana (1952)
TTITLE4=Larry Dale - Down To The Bottom (1954)
TTITLE5=Dave Bartholomew - Shrimp and Gumbo (1956)
TTITLE6=Danny Cobb - My Isabella (1956)
TTITLE7=Marvin Phillips - Salty Dog (1953)
TTITLE8=Fay Simmons - Big Joe Mambo (1954)
TTITLE9=Gerald Wilson - Mambo Mexicana (1954)
TTITLE10=Mad Man Jones - Snake Charmer (1958)
TTITLE11=Lalo Guererro Y Sus Cinco Lobos - Los Chucos Suaves (1949)
TTITLE12=The Sultans - Boppin' With The Mambo (1954)
TTITLE13=Alfredito and His Orchestra - Honeydripper Mambo (1953)
TTITLE14=Annisteen Allen - Take A Chance On Me (1954)
TTITLE15=Gloria Irving - I Need A Man (1957)
TTITLE16=Billy 'Red' Love - A Dream (1952)
TTITLE17=Faye Adams - The Hammer Keeps A Knockin' (1956)
TTITLE18=Elena Madera - Pu-Chun-Ga (Sweet One) (1959)
TTITLE19=Cozy Cole - Cozy and Bossa (1959)
TTITLE20=Camille Howard - Shrinking Up Fast (1950)
TTITLE21=Joe Loco His Piano and Quintet - Why Don't You Do Right (1954)
EXTD=
EXTT0=
EXTT1=
EXTT2=
EXTT3=
EXTT4=
EXTT5=
EXTT6=
EXTT7=
EXTT8=
EXTT9=
EXTT10=
EXTT11=
EXTT12=
EXTT13=
EXTT14=
EXTT15=
EXTT16=
EXTT17=
EXTT18=
EXTT19=
EXTT20=
EXTT21=
PLAYORDER=
